name pl05_filtered_grf.mot
datacolumns 37
datarows 9
range 0.002500 0.006500
endheader
time	1_ground_force_vx	1_ground_force_vy	1_ground_force_vz	1_ground_force_px	1_ground_force_py	1_ground_force_pz	1_ground_torque_x	1_ground_torque_y	1_ground_torque_z	2_ground_force_vx	2_ground_force_vy	2_ground_force_vz	2_ground_force_px	2_ground_force_py	2_ground_force_pz	2_ground_torque_x	2_ground_torque_y	2_ground_torque_z	3_ground_force_vx	3_ground_force_vy	3_ground_force_vz	3_ground_force_px	3_ground_force_py	3_ground_force_pz	3_ground_torque_x	3_ground_torque_y	3_ground_torque_z	4_ground_force_vx	4_ground_force_vy	4_ground_force_vz	4_ground_force_px	4_ground_force_py	4_ground_force_pz	4_ground_torque_x	4_ground_torque_y	4_ground_torque_z
            0.002500	            0.000000	           -0.000000	           -0.000000	            0.142679	            0.000000	            0.180650	           -0.000000	           -0.000000	            0.000000	           -0.000000	           -0.000000	           -0.000000	           -0.199375	            0.000000	            0.211348	           -0.000000	            0.000000	           -0.000000	          -42.670484	          315.523328	           89.662540	            0.412877	            1.261991	            1.873433	            1.659465	          -12.270776	           -3.486997	           48.706458	          367.156376	           85.593707	           -0.354389	            1.255588	            1.900740	            2.293017	           17.285097	            4.029606
            0.003000	            0.000000	           -0.000000	           -0.000000	            0.142679	            0.000000	            0.180650	           -0.000000	           -0.000000	            0.000000	           -0.000000	           -0.000000	           -0.000000	           -0.199375	            0.000000	            0.211348	           -0.000000	            0.000000	           -0.000000	          -42.671227	          315.862302	           89.605273	            0.412877	            1.261991	            1.873433	            1.658440	          -12.276158	           -3.482557	           48.782863	          367.630374	           85.726548	           -0.354389	            1.255588	            1.900740	            2.297898	           17.317086	            4.038116
            0.003500	            0.000000	           -0.000000	           -0.000000	            0.142679	            0.000000	            0.180650	           -0.000000	           -0.000000	            0.000000	           -0.000000	           -0.000000	           -0.000000	           -0.199375	            0.000000	            0.211348	           -0.000000	            0.000000	           -0.000000	          -42.673248	          316.207920	           89.548895	            0.412876	            1.261992	            1.873434	            1.657471	          -12.281831	           -3.478168	           48.861572	          368.114981	           85.859356	           -0.354393	            1.255585	            1.900743	            2.302833	           17.349160	            4.046528
            0.004000	            0.000000	           -0.000000	           -0.000000	            0.142679	            0.000000	            0.180650	           -0.000000	           -0.000000	            0.000000	           -0.000000	           -0.000000	           -0.000000	           -0.199375	            0.000000	            0.211348	           -0.000000	            0.000000	           -0.000000	          -42.676628	          316.559995	           89.493564	            0.412874	            1.261993	            1.873435	            1.656564	          -12.287800	           -3.473841	           48.942564	          368.609786	           85.991986	           -0.354397	            1.255583	            1.900745	            2.307818	           17.381278	            4.054832
            0.004500	            0.000000	           -0.000000	           -0.000000	            0.142679	            0.000000	            0.180650	           -0.000000	           -0.000000	            0.000000	           -0.000000	           -0.000000	           -0.000000	           -0.199375	            0.000000	            0.211348	           -0.000000	            0.000000	           -0.000000	          -42.681450	          316.918333	           89.439440	            0.412873	            1.261994	            1.873436	            1.655722	          -12.294068	           -3.469583	           49.025813	          369.114358	           86.124299	           -0.354401	            1.255580	            1.900747	            2.312850	           17.413399	            4.063014
            0.005000	            0.000000	           -0.000000	           -0.000000	            0.142679	            0.000000	            0.180650	           -0.000000	           -0.000000	            0.000000	           -0.000000	           -0.000000	           -0.000000	           -0.199375	            0.000000	            0.211348	           -0.000000	            0.000000	           -0.000000	          -42.687792	          317.282742	           89.386683	            0.412872	            1.261995	            1.873437	            1.654950	          -12.300639	           -3.465405	           49.111287	          369.628248	           86.256164	           -0.354405	            1.255577	            1.900750	            2.317924	           17.445484	            4.071065
            0.005500	            0.000000	           -0.000000	           -0.000000	            0.142679	            0.000000	            0.180650	           -0.000000	           -0.000000	            0.000000	           -0.000000	           -0.000000	           -0.000000	           -0.199375	            0.000000	            0.211348	           -0.000000	            0.000000	           -0.000000	          -42.695969	          317.653001	           89.335424	            0.412871	            1.261996	            1.873438	            1.654262	          -12.307516	           -3.461315	           49.198955	          370.151077	           86.387087	           -0.354408	            1.255575	            1.900752	            2.323037	           17.477497	            4.078956
            0.006000	            0.000000	           -0.000000	           -0.000000	            0.142679	            0.000000	            0.180650	           -0.000000	           -0.000000	            0.000000	           -0.000000	           -0.000000	           -0.000000	           -0.199375	            0.000000	            0.211348	           -0.000000	            0.000000	           -0.000000	          -42.705814	          318.028940	           89.285850	            0.412870	            1.261997	            1.873438	            1.653652	          -12.314701	           -3.457322	           49.288768	          370.682277	           86.517319	           -0.354412	            1.255572	            1.900754	            2.328184	           17.509396	            4.086697
            0.006500	            0.000000	           -0.000000	            0.000000	            0.142679	            0.000000	            0.180650	           -0.000000	           -0.000000	            0.000000	           -0.000000	           -0.000000	           -0.000000	           -0.199375	            0.000000	            0.211348	           -0.000000	            0.000000	            0.000000	          -42.717399	          318.410365	           89.238116	            0.412869	            1.261998	            1.873439	            1.653125	          -12.322198	           -3.453436	           49.380677	          371.221354	           86.646753	           -0.354416	            1.255569	            1.900756	            2.333361	           17.541145	            4.094277
